# xmcd CD database file
#
# Track frame offsets:
#	150
#	22760
#	42860
#
# Disc length: 789 seconds
#
# Revision: 0
# Processed by: cddbd v1.5.1PL0 Copyright (c) Steve Scherf et al.
# Submitted via: CDex 1.51
#
DISCID=15031303
DTITLE=長谷川都 - 満ちてゆく/こころの声
DYEAR=2005
DGENRE=JPop
TTITLE0=満ちてゆく
TTITLE1=こころの声
TTITLE2=おんなじ空の下
EXTD=YEAR: 2005
EXTT0=
EXTT1=
EXTT2=
PLAYORDER=
